<svg viewBox="0 0 2048 1329.1012" xmlns="http://www.w3.org/2000/svg"><path d="M2027.52 326.293h-104.448L1863.68 581.27l-8.397 35.02c-5.734 1.638-11.674 3.277-17.408 4.3-9.986 2.085-21.462 3.278-33.216 3.278h-.177.01c-.81.03-1.758.048-2.71.048-10.477 0-20.457-2.126-29.532-5.97l.498.187c-7.292-3.367-13.017-9.092-16.3-16.18l-.084-.204c-2.484-5.9-3.928-12.757-3.928-19.952 0-1.773.088-3.525.26-5.253l-.02.218c.928-11.36 2.815-21.826 5.608-31.914l-.282 1.193 31.744-132.506 20.48-88.064H1703.73l-48.128 203.57c-5.182 20.554-8.77 44.542-10 69.15l-.035.892c-.152 2.364-.24 5.126-.24 7.908 0 18.368 3.78 35.853 10.6 51.722l-.325-.852c8.13 17.75 21.56 31.905 38.24 40.734l.467.226c19.875 9.468 43.193 14.998 67.803 14.998 3.165 0 6.308-.09 9.428-.27l-.43.02c.903.01 1.97.015 3.037.015 20.094 0 39.7-2.094 58.61-6.076l-1.845.324h2.048c-4.922 20.142-15.78 37.253-30.587 49.86l-.133.11c-16.69 12.906-37.914 20.687-60.954 20.687-2.26 0-4.504-.074-6.727-.22l.3.015c-1.076.017-2.346.027-3.618.027-11.073 0-21.97-.754-32.64-2.214l1.24.14-20.48 86.425c13.828 1.693 29.84 2.66 46.076 2.662h.003c1.164.016 2.537.026 3.912.026 28.196 0 55.48-3.896 81.347-11.182l-2.11.508c23.665-7.07 44.176-18.308 61.708-32.987l-.268.218c17.27-15.427 31.642-33.655 42.497-54.04l.51-1.05c11.79-22.777 21.332-49.2 27.273-76.955l.376-2.1 72.09-303.103zM1590.272 544.2c-4.35 17.11-6.847 36.75-6.847 56.972 0 8.136.404 16.178 1.193 24.107l-.08-1.003c3.834 32.79 12.06 62.694 24.143 90.534l-.795-2.06h-100.762c-6.312-10.68-11.262-23.068-14.178-36.22l-.158-.848c-12.547 10.22-26.84 19.064-42.207 25.935l-1.21.484c-15.33 6.738-33.198 10.66-51.983 10.66-.517 0-1.034-.004-1.55-.01h.08c-.9.022-1.957.034-3.018.034-20.587 0-40.113-4.54-57.63-12.674l.845.352c-16.404-7.848-30.112-18.934-40.775-32.523l-.185-.246c-10.346-13.61-18.203-29.723-22.544-47.227l-.188-.9c-4.43-17.127-6.975-36.79-6.975-57.044 0-.826.004-1.65.013-2.474v.125c-.002-.22-.002-.48-.002-.742 0-32.526 6.24-63.595 17.59-92.074l-.59 1.68c11.735-28.936 27.858-53.736 47.823-74.866l-.105.113c37.045-41.373 90.34-67.54 149.76-68.4l.154-.003h161.586zm-73.728-129.843c-48.742 0-57.754 0-77.824 10.035-14.362 8.003-26.373 18.51-35.838 31.048l-.207.287c-10.143 12.678-18.41 27.414-24.048 43.39l-.323 1.052c-5.688 15.736-8.987 33.898-9.01 52.827v.01c-.076 1.522-.12 3.305-.12 5.1 0 17.6 4.128 34.236 11.467 48.994l-.287-.64c7.675 12.485 21.26 20.685 36.76 20.685 1.48 0 2.94-.075 4.38-.22l-.18.015c.29.005.63.007.973.007 10.216 0 19.885-2.345 28.497-6.526l-.388.17c10.692-5.453 19.825-12.298 27.612-20.44l.036-.04q1.638-17.407 4.71-36.658c2.048-12.698 4.71-24.986 6.963-35.43l26.42-111.82zm-279.757 65.127c.005.59.008 1.29.008 1.99 0 33.083-6.24 64.71-17.61 93.764l.604-1.75c-11.15 28.678-27.127 53.207-47.152 73.775l.047-.048c-19.925 20.695-43.91 37.324-70.692 48.628l-1.398.524c-26.24 11.02-56.74 17.42-88.734 17.42-.844 0-1.687-.004-2.53-.013h.128c-17.115-.157-33.75-1.715-49.94-4.564l1.812.264-31.744 127.795H825.138L946.38 327.726h139.06c1.117-.026 2.435-.04 3.756-.04 23.066 0 45.073 4.528 65.183 12.744l-1.152-.415c35.958 14.55 63.142 44.286 73.915 81.035l.222.885c5.972 16.916 9.423 36.422 9.423 56.735 0 .286 0 .572-.002.858v-.044zm-256 144.59c8.28 1.712 17.795 2.693 27.54 2.693 18.92 0 36.978-3.697 53.488-10.408l-.95.34c15.235-7.028 28.12-16.7 38.6-28.55l.106-.12c10.484-12.5 18.962-27.112 24.676-43.04l.31-.993c5.717-16.51 9.018-35.535 9.018-55.332 0-.49-.002-.982-.006-1.472v.075c.04-1.02.063-2.215.063-3.417 0-17.732-4.974-34.303-13.605-48.392l.23.405c-9.286-13.33-24.538-21.945-41.803-21.945-1.722 0-3.424.086-5.102.253l.212-.016h-40.96zm-219.34 0c-.81.03-1.758.047-2.71.047-10.477 0-20.457-2.125-29.532-5.97l.497.188c-7.292-3.367-13.017-9.092-16.3-16.18l-.084-.204c-2.484-5.9-3.928-12.756-3.928-19.95 0-1.774.088-3.526.26-5.254l-.02.218c.928-11.36 2.815-21.826 5.608-31.914l-.282 1.194L746.7 413.742h118.784l21.71-88.064h-119.4l27.65-111.206-111.207 17.408L614.4 529.864c-5.182 20.553-8.77 44.54-10 69.15l-.035.89c-.152 2.365-.24 5.127-.24 7.91 0 18.367 3.78 35.852 10.6 51.72l-.325-.85c8.13 17.75 21.56 31.904 38.24 40.733l.467.226c19.876 9.468 43.194 14.998 67.804 14.998 3.166 0 6.31-.09 9.43-.27l-.432.02c.903.01 1.97.015 3.037.015 20.094 0 39.7-2.094 58.61-6.076l-1.845.324 5.734-1.638 21.71-90.726c-6.19 2.247-13.507 4.104-21.06 5.244l-.65.08c-8.777 1.608-18.877 2.527-29.193 2.527-1.688 0-3.372-.024-5.05-.073l.247.006zM495.82 326.293L403.66 713.16h104.45l91.75-386.867H495.82zM610.92 281.85l15.77-67.38H522.445l-15.974 67.38h104.45zm-346.112 45.875c.73-.014 1.593-.023 2.457-.023 20.287 0 39.515 4.538 56.722 12.655l-.81-.345c16.32 7.842 30 18.77 40.786 32.136l.174.223c10.374 13.557 18.515 29.463 23.506 46.706l.25 1.01c5.075 17.097 7.995 36.74 7.995 57.066 0 .602-.003 1.204-.008 1.805v-.09c.005.506.007 1.105.007 1.704 0 32.5-6.63 63.45-18.607 91.574l.58-1.53c-12.122 29.093-28.57 54.013-48.834 75.26l.09-.097c-41.376 42.47-99.127 68.815-163.03 68.815-.285 0-.57 0-.852-.002h.045-22.323c-12.854-.166-25.307-1.35-37.436-3.48l1.39.203c-13.72-2.048-28.057-4.71-43.007-8.397-16.604-4.498-31.03-10.23-44.605-17.363l1.187.568 121.446-509.747 108.544-16.998-43.008 180.634c7.867-3.798 17.082-7.1 26.678-9.427l.97-.2c7.272-1.78 15.62-2.804 24.21-2.804 1.93 0 3.847.052 5.752.154l-.266-.01zM173.67 626.735c.323.004.705.007 1.087.007 16.595 0 32.123-4.57 45.395-12.518l-.402.223c14.836-8.29 27.345-18.905 37.493-31.5l.19-.244c10.323-12.867 18.785-27.796 24.643-43.972l.343-1.083c5.64-15.61 8.937-33.622 9.01-52.396v-.032c.09-1.62.14-3.515.14-5.422 0-17.146-4.14-33.325-11.473-47.593l.274.586c-8.516-11.563-22.078-18.982-37.373-18.982-1.986 0-3.943.125-5.863.368l.228-.024c-8.474.055-16.647 1.248-24.404 3.433l.648-.156c-11.417 2.38-21.35 7.64-29.33 14.99l.043-.04-44.647 192.307c6.262 1.28 13.712 2.23 21.305 2.645l.404.018c2.97-.416 6.4-.653 9.885-.653.845 0 1.687.014 2.525.042l-.122-.004z"/></svg>