<svg height="34.666668" viewBox="0 0 53.333332 34.666668" width="53.333332" xmlns="http://www.w3.org/2000/svg"><g transform="matrix(.13333333 0 0 -.13333333 0 34.666667)"><path d="m400 0h-400v260h400z" fill="#eee"/><path d="m81.1211 158.152c13.6133 0 22.8949-8.328 22.8949-20.839h-46.9847c0 13.273 12.1289 20.839 24.0898 20.839zm.5781 10.871c-22.7422 0-41.6992-9.648-41.6992-38.757 0-23.071 12.7422-37.6019 42.2852-37.6019 34.7848 0 37.0118 22.9099 37.0118 22.9099h-16.856s-3.6012-12.32-21.1793-12.32c-14.3086 0-24.6015 9.644-24.6015 23.199h64.3868v8.496c0 13.41-8.508 34.074-39.3478 34.074" fill="#d93232"/><path d="m162.742 157.688c15.442 0 25.266-11.465 25.266-26.848 0-16.477-11.336-27.266-25.156-27.266-16.473 0-25.364 12.871-25.364 27.129 0 13.289 7.981 26.985 25.254 26.985zm-41.707 39.531v-89.922c0-5.109-.351-12.2775-.351-12.2775h16.062s.59 5.1445.59 9.8515c0 0 7.93-12.4296 29.527-12.4296 22.727 0 38.176 15.8006 38.176 38.3986 0 21.047-14.187 37.969-38.144 37.969-22.43 0-29.407-12.121-29.407-12.121v40.531z" fill="#265697"/><path d="m263.77 129.082v-4.687c0-6.133-3.79-21.368-26.043-21.368-12.2 0-17.414 6.082-17.414 13.145 0 12.832 17.597 12.91 43.457 12.91zm-18.79 39.941c-34.226 0-36.425-18.73-36.425-21.726h17.031s.898 10.933 18.215 10.933c11.25 0 19.969-5.144 19.969-15.039v-3.535h-19.969c-26.516 0-40.531-7.754-40.531-23.484 0-15.488 12.96-23.9259 30.453-23.9259 23.855 0 31.531 13.1839 31.531 13.1839 0-5.242.41-10.4105.41-10.4105h15.149s-.598 6.4065-.598 10.5005v35.398c0 23.223-18.723 28.105-35.235 28.105z" fill="#f5af02"/><path d="m271.047 166.086h19.148l27.508-55.102 27.442 55.102h17.355l-49.98-98.0899h-18.211l14.429 27.3477z" fill="#86b817"/></g></svg>